<svg width="40" height="40" viewBox="0 0 40 40" fill="none" xmlns="http://www.w3.org/2000/svg">
<rect width="40" height="40" rx="20" fill="#101010" fill-opacity="0.8"/>
<g clip-path="url(#clip0_6860_123567)">
<path d="M24 22.7202C23.4933 22.7202 23.04 22.9202 22.6933 23.2335L17.94 20.4668C17.9733 20.3135 18 20.1602 18 20.0002C18 19.8402 17.9733 19.6868 17.94 19.5335L22.64 16.7935C23 17.1268 23.4733 17.3335 24 17.3335C25.1067 17.3335 26 16.4402 26 15.3335C26 14.2268 25.1067 13.3335 24 13.3335C22.8933 13.3335 22 14.2268 22 15.3335C22 15.4935 22.0267 15.6468 22.06 15.8002L17.36 18.5402C17 18.2068 16.5267 18.0002 16 18.0002C14.8933 18.0002 14 18.8935 14 20.0002C14 21.1068 14.8933 22.0002 16 22.0002C16.5267 22.0002 17 21.7935 17.36 21.4602L22.1067 24.2335C22.0733 24.3735 22.0533 24.5202 22.0533 24.6668C22.0533 25.7402 22.9267 26.6135 24 26.6135C25.0733 26.6135 25.9467 25.7402 25.9467 24.6668C25.9467 23.5935 25.0733 22.7202 24 22.7202Z" fill="white"/>
</g>
<defs>
<clipPath id="clip0_6860_123567">
<rect width="16" height="16" fill="white" transform="translate(12 12)"/>
</clipPath>
</defs>
</svg>
